<svg xmlns="http://www.w3.org/2000/svg" width="40" height="40" viewBox="0 0 40 40"><defs><style>.a{fill:#616161;}</style></defs><path class="a" d="M40,18.679v1.429a1.95,1.95,0,0,1-1.667,2.143h-.556L35.964,38.57c-.235,2.111-1.641,3.68-3.3,3.68H7.335c-1.659,0-3.065-1.568-3.3-3.68L2.222,22.25H1.667A1.95,1.95,0,0,1,0,20.107V18.679a1.95,1.95,0,0,1,1.667-2.143H6.343L13.758,3.427a1.924,1.924,0,0,1,3.1-.63,3.416,3.416,0,0,1,.49,3.991l-5.514,9.748H28.161L22.647,6.788a3.416,3.416,0,0,1,.49-3.991,1.924,1.924,0,0,1,3.1.63l7.415,13.109h4.676A1.95,1.95,0,0,1,40,18.679ZM21.667,34.393v-10A1.95,1.95,0,0,0,20,22.25a1.95,1.95,0,0,0-1.667,2.143v10A1.95,1.95,0,0,0,20,36.536,1.95,1.95,0,0,0,21.667,34.393Zm7.778,0v-10a1.95,1.95,0,0,0-1.667-2.143,1.95,1.95,0,0,0-1.667,2.143v10a1.95,1.95,0,0,0,1.667,2.143A1.95,1.95,0,0,0,29.444,34.393Zm-15.556,0v-10a1.95,1.95,0,0,0-1.667-2.143,1.95,1.95,0,0,0-1.667,2.143v10a1.95,1.95,0,0,0,1.667,2.143A1.95,1.95,0,0,0,13.889,34.393Z" transform="translate(0 -2.25)"/></svg>